<svg width="175" height="33" viewBox="0 0 175 33" fill="none" xmlns="http://www.w3.org/2000/svg">
<path d="M174.234 16.6006C174.234 25.4406 167.074 32.6006 158.234 32.6006C155.704 32.6006 153.314 32.0106 151.184 30.9706C151.164 30.9606 151.154 30.9506 151.144 30.9406C150.564 30.5506 149.954 30.2006 149.324 29.9006C149.314 29.8806 149.294 29.8806 149.284 29.8706C147.154 28.8306 144.764 28.2406 142.234 28.2406C139.704 28.2406 137.314 28.8306 135.184 29.8706C135.174 29.8806 135.154 29.8806 135.144 29.9006C134.514 30.2006 133.904 30.5506 133.324 30.9406C133.314 30.9506 133.304 30.9606 133.284 30.9706C131.154 32.0106 128.764 32.6006 126.234 32.6006H16.2344C7.39437 32.6006 0.234375 25.4406 0.234375 16.6006C0.234375 12.1806 2.02437 8.18059 4.92438 5.29059C7.81437 2.39059 11.8144 0.600586 16.2344 0.600586H126.234C128.694 0.600586 131.024 1.15059 133.104 2.15059C133.814 2.65059 134.574 3.09059 135.364 3.46059C137.444 4.46059 139.774 5.01059 142.234 5.01059C144.694 5.01059 147.024 4.46059 149.104 3.46059C149.894 3.09059 150.654 2.65059 151.364 2.15059C153.444 1.15059 155.774 0.600586 158.234 0.600586C167.074 0.600586 174.234 7.77059 174.234 16.6006Z" fill="#FFFDFA"/>
</svg>
