<svg width="18" height="18" viewBox="0 0 18 18" fill="none" xmlns="http://www.w3.org/2000/svg">
<g clip-path="url(#clip0_252_127)">
<path d="M13.5938 6.61835H14.298C15.0452 6.61835 15.7617 6.91515 16.29 7.44346C16.8183 7.97177 17.1151 8.68832 17.1151 9.43547C17.1151 10.1826 16.8183 10.8992 16.29 11.4275C15.7617 11.9558 15.0452 12.2526 14.298 12.2526H13.5938" stroke="#FFFDFA" stroke-width="1.63447" stroke-linecap="round" stroke-linejoin="round"/>
<path d="M2.32422 6.61835H13.5927V12.9569C13.5927 13.704 13.2959 14.4206 12.7676 14.9489C12.2393 15.4772 11.5227 15.774 10.7756 15.774H5.14134C4.39419 15.774 3.67765 15.4772 3.14933 14.9489C2.62102 14.4206 2.32422 13.704 2.32422 12.9569V6.61835Z" stroke="#FFFDFA" stroke-width="1.63447" stroke-linecap="round" stroke-linejoin="round"/>
<path d="M5.14258 1.68842V3.80125" stroke="#FFFDFA" stroke-width="1.63447" stroke-linecap="round" stroke-linejoin="round"/>
<path d="M7.95898 1.68842V3.80125" stroke="#FFFDFA" stroke-width="1.63447" stroke-linecap="round" stroke-linejoin="round"/>
<path d="M10.7754 1.68842V3.80125" stroke="#FFFDFA" stroke-width="1.63447" stroke-linecap="round" stroke-linejoin="round"/>
</g>
<defs>
<clipPath id="clip0_252_127">
<rect width="16.9027" height="16.9027" fill="white" transform="translate(0.916016 0.984131)"/>
</clipPath>
</defs>
</svg>
