<svg width="48" height="44" viewBox="0 0 48 44" fill="none" xmlns="http://www.w3.org/2000/svg">
<path d="M47.9023 13.3608H36.0356L30.6521 21.9314L20.0188 7.03391C24.5881 7.07343 30.0658 7.7879 34.4193 9.71546V0.0411987H4.88917L15.4617 14.0874C6.95507 14.5739 0.878906 20.2897 0.878906 28.4377C0.878906 37.3154 7.44116 43.8216 16.5554 43.8216C22.6316 43.8216 26.2165 41.7542 30.6521 35.7952L34.6168 43.2288L45.7818 43.092L35.4523 28.6201L47.9023 13.3608ZM22.0483 32.3718C18.4664 37.6164 12.9036 39.6503 9.91113 37.8839C6.97026 36.2269 6.70291 30.1798 10.2301 25.0964C13.812 19.7971 19.3201 17.8179 22.3156 19.5296C25.2565 21.1896 25.5238 27.2368 22.0483 32.3718Z" fill="#FCFAF8"/>
</svg>
