<svg  viewBox="0 0 208 32" fill="none" xmlns="http://www.w3.org/2000/svg">
<path d="M0 28.0327C0 26.6832 1.86349 25.6796 4.21171 24.7104C2.00296 24.3644 0.759113 23.6037 0.345259 22.2198V21.9769C2.5883 21.3193 4.38548 20.247 5.31608 18.8287C2.41682 18.2055 0.482448 16.3725 0.482448 13.7077C0.482448 9.52156 4.52267 7.34256 10.0811 7.34256C14.7776 7.34256 17.0549 7.09968 18.1593 5.88989L18.3308 5.92426C18.4679 8.58901 17.5716 9.66132 16.4673 9.66132C15.5001 9.66132 12.9118 9.14121 10.1497 8.65775L10.1154 8.86625C14.3614 10.1127 16.4673 11.531 16.4673 13.8841C16.4673 16.8238 13.049 19.0739 7.6986 19.0739C7.07667 19.0739 6.45475 19.0395 5.86941 18.9364C5.38696 19.4565 5.14459 19.8025 5.14459 20.0774C5.14459 21.8761 18.2302 19.523 18.2302 25.5444C18.2302 28.4841 15.5024 31.669 7.90667 31.669C2.07156 31.669 0 29.9047 0 28.0373V28.0327ZM10.7716 30.3515C13.4308 30.3515 14.7433 29.451 14.7433 28.1725C14.7433 26.3738 13.1907 25.6475 4.93881 24.8158C4.1111 25.2992 3.76584 25.6452 3.76584 26.2685C3.76584 28.7247 6.87318 30.3515 10.7739 30.3515H10.7716ZM8.83727 18.1367C10.7373 18.1367 11.565 16.9247 11.565 14.1568C11.565 10.7313 10.2869 8.30947 8.00956 8.30947C6.35186 8.30947 5.24748 9.38179 5.24748 12.3581C5.24748 15.7836 6.52563 18.1367 8.83727 18.1367Z" fill="white"/>
<path d="M18.7812 20.7524C18.7812 17.7096 22.5785 16.5007 28.9292 15.0468C28.9292 10.6555 28.376 8.30408 26.4442 8.30408C24.9949 8.30408 24.0621 9.58394 24.4416 12.1414C24.6131 13.3159 23.3031 14.1814 21.7143 14.1814C19.9883 14.1814 19.5745 13.4556 19.5745 12.6954C19.5745 10.138 23.5798 7.33789 27.8593 7.33789C32.6236 7.33789 33.6592 9.44657 33.6592 12.8008C33.6592 14.9781 33.5563 17.0181 33.5563 18.9894C33.5563 22.3093 33.7277 23.2411 34.5576 23.2411C34.9371 23.2411 35.5246 22.6184 35.8012 19.9579H36.1121C36.0778 24.4523 34.6627 25.4895 32.5915 25.4895C30.5203 25.4895 29.3133 24.1753 29.071 21.9292H28.9681C27.2421 24.0379 25.7241 25.4895 23.893 25.4895C20.7176 25.4895 18.7835 23.3464 18.7835 20.7524H18.7812ZM26.3757 22.584C27.2741 22.584 28.0331 22.1009 28.7921 21.5468C28.8949 19.8869 28.9292 17.6409 28.9292 15.9466C24.7182 16.5694 23.5775 17.0181 23.5775 19.3695C23.5775 20.7867 24.5788 22.584 26.3734 22.584H26.3757Z" fill="white"/>
<path d="M36.7553 24.9661L37.1697 24.7576C38.1727 23.9625 38.3101 22.9588 38.3101 17.008C38.3101 12.2671 38.2414 11.2635 37.1697 10.5371L36.5469 10.017V9.91386C39.21 9.60222 41.6304 8.28696 42.9081 6.66235L43.0455 6.69672C42.9768 7.70036 42.8715 9.25622 42.8028 10.9862H42.9402C44.8774 8.84148 47.2634 7.3177 49.5098 7.3177C53.1415 7.3177 54.0734 9.46245 54.0734 12.785C54.0734 15.7249 54.0391 17.3518 54.0391 18.8412C54.0391 22.8557 54.2475 24.0656 55.4909 24.7576L55.9053 24.9661V25.1036H47.5725V24.9661L48.1267 24.7576C49.1296 23.9968 49.267 22.127 49.267 16.6254C49.267 11.8157 48.7495 10.1888 46.1208 10.1888C45.0835 10.1888 44.3232 10.4317 43.1829 11.2612C43.0798 13.1287 43.0455 14.79 43.0455 16.7285C43.0455 22.2301 43.1829 23.9945 44.4973 24.7553L45.0514 24.9638V25.1013H36.753V24.9638L36.7553 24.9661Z" fill="white"/>
<path d="M68.8193 21.8081H68.6817C66.8824 23.7447 64.9777 25.473 62.6237 25.473C59.3712 25.473 56.5312 22.6047 56.5312 17.2803C56.5312 10.6099 61.1682 7.49905 64.7347 7.49905C66.7082 7.49905 67.8497 8.19035 68.5763 9.26164C68.5763 4.83684 68.4732 4.42251 67.4348 3.69687L66.777 3.21388V3.07653C69.5115 2.76522 72.3147 1.65959 73.6992 0L73.8367 0.0343363C73.4562 2.83389 73.3164 6.11873 73.3164 13.8604C73.3164 22.5361 73.5937 22.9504 74.9094 23.4013L75.3587 23.6096V23.747C72.6242 23.9553 70.2358 24.9213 68.7482 25.9239L68.5763 25.8896C68.7138 24.61 68.7849 23.2617 68.8193 21.8104V21.8081ZM65.6699 22.5681C66.6051 22.5681 67.4692 22.3255 68.4388 21.5311C68.5419 19.8029 68.5763 18.3173 68.5763 14.9638C68.5763 10.159 67.1231 8.3277 64.9066 8.3277C62.6902 8.3277 61.6541 10.056 61.6541 15.1377C61.6541 20.2195 63.2471 22.5704 65.6699 22.5704V22.5681Z" fill="white"/>
<path d="M76.1459 24.9635L76.629 24.7208C77.5288 23.995 77.6661 22.889 77.6661 14.451C77.6661 4.90707 77.6318 4.49261 76.5259 3.69805L75.9375 3.2149V3.07751C78.6003 2.76609 81.4005 1.66011 82.7834 0L82.9207 0.0343472C82.575 2.59207 82.4376 5.77491 82.4033 10.856H82.5407C84.338 8.85013 86.655 7.32969 88.9011 7.32969C92.5324 7.32969 93.4643 9.47296 93.4643 12.7932C93.4643 15.731 93.4299 17.3568 93.4299 18.8452C93.4299 22.8569 93.6383 24.0659 94.8472 24.7575L95.296 24.9658V25.1032H86.9641V24.9658L87.5182 24.7575C88.5211 23.9972 88.6584 22.1288 88.6584 16.6309C88.6584 11.8246 88.1387 10.1988 85.5125 10.1988C84.4754 10.1988 83.7152 10.4415 82.575 11.2705C82.472 13.1367 82.4376 14.7968 82.4376 16.734C82.4376 22.2318 82.575 23.995 83.9236 24.7552L84.441 24.9635V25.1009H76.1436V24.9635H76.1459Z" fill="white"/>
<path d="M96.275 24.9659L96.6898 24.7575C97.6936 23.9627 97.8311 22.7855 97.8311 16.7001C97.8311 11.9271 97.728 10.9239 96.6898 10.3009L96.0664 9.78103V9.64361C98.4545 9.43519 101.083 8.46867 102.814 6.66848L102.951 6.70284C102.674 9.26113 102.571 12.1675 102.571 15.9031C102.571 22.0595 102.708 23.9604 103.921 24.7575L104.37 24.9659V25.1033H96.2727V24.9659H96.275ZM100.668 0.965576C102.433 0.965576 103.299 1.72596 103.299 3.35209C103.299 5.11564 101.915 6.05009 99.8044 6.05009C98.0741 6.05009 97.139 5.25535 97.139 3.62922C97.139 2.00309 98.3858 0.965576 100.668 0.965576Z" fill="white"/>
<path d="M137.568 24.9649L137.982 24.7563C138.985 23.9612 139.123 22.9576 139.123 17.0068C139.123 12.2659 139.054 11.2623 137.982 10.5359L137.359 10.0157V9.91263C140.022 9.601 142.443 8.28574 143.721 6.66113L143.858 6.6955C143.789 7.69914 143.686 9.255 143.615 10.985H143.753C145.69 8.84026 148.076 7.31647 150.322 7.31647C153.954 7.31647 154.886 9.46123 154.886 12.7838C154.886 15.7236 154.852 17.3505 154.852 18.8399C154.852 22.8545 155.06 24.0643 156.303 24.7563L156.718 24.9649V25.1023H148.385V24.9649L148.939 24.7563C149.942 23.9956 150.08 22.1258 150.08 16.6242C150.08 11.8145 149.56 10.1876 146.933 10.1876C145.896 10.1876 145.136 10.4305 143.995 11.26C143.892 13.1275 143.858 14.7887 143.858 16.7273C143.858 22.2289 143.995 23.9933 145.31 24.7541L145.864 24.9626V25.1001H137.565V24.9626L137.568 24.9649Z" fill="white"/>
<path d="M157.395 17.0171C157.395 10.9315 161.227 7.33691 166.58 7.33691C171.277 7.33691 173.832 10.4828 173.175 14.9428L162.16 15.4259C162.471 19.7486 164.44 21.9603 167.616 21.9603C169.791 21.9603 171.828 20.5774 172.659 18.02L172.901 18.0543C172.382 22.9974 169.759 25.4885 165.65 25.4885C160.918 25.4885 157.397 22.4113 157.397 17.0171H157.395ZM162.126 14.6658L167.442 14.4231C168.341 14.3887 168.616 14.0774 168.616 13.2485C168.616 10.2744 167.372 8.27105 165.371 8.27105C163.37 8.27105 162.126 10.5171 162.126 14.2514V14.6658Z" fill="white"/>
<path d="M174.403 24.9674L174.817 24.7588C175.819 23.9636 175.956 22.9599 175.956 17.0083C175.956 12.2668 175.887 11.2631 174.817 10.5366L174.195 10.0164V9.91328C176.854 9.60161 179.271 8.28618 180.547 6.66138L180.684 6.69575C180.615 7.69951 180.512 9.25557 180.441 11.3685H180.579C181.822 9.04932 183.686 7.31909 185.377 7.31909C186.93 7.31909 188.002 8.56577 188.002 9.81016C188.002 11.4373 186.31 12.9589 185.137 12.9589C183.791 12.9589 183.308 10.571 182.341 10.571C181.893 10.571 181.34 10.9858 180.823 11.7123C180.72 13.1308 180.686 14.7923 180.686 16.7311C180.686 22.2334 180.823 23.8605 182.792 24.7932L183.482 24.9651V25.1026H174.403V24.9651V24.9674Z" fill="white"/>
<path d="M201.065 21.7777H200.928C199.095 23.7154 196.949 25.4789 194.528 25.4789C190.931 25.4789 189.997 23.3008 189.997 19.9798C189.997 17.0413 190.031 15.3464 190.031 13.8577C190.031 11.991 189.962 10.9191 188.925 10.2962L188.336 9.77626V9.63884C190.723 9.43042 193.316 8.46389 195.045 6.66367L195.217 6.69802C194.94 9.15329 194.802 11.9544 194.802 16.3473C194.802 21.1548 195.391 22.5725 197.881 22.5725C198.641 22.5725 199.576 22.3641 200.682 21.5006C200.786 19.634 200.82 17.9391 200.82 16.0015C200.82 11.8857 200.648 10.8825 199.333 10.2939L198.745 9.77397V9.63655C201.374 9.42813 204.07 8.4616 205.8 6.66138L205.937 6.69573C205.66 9.15099 205.557 11.9865 205.557 16.0335C205.557 22.1213 205.868 22.9504 207.009 23.3993L207.598 23.6077V23.7451C204.865 23.9536 202.41 24.9201 200.923 25.9233L200.82 25.8889C200.957 24.6086 201.028 23.2252 201.063 21.7731L201.065 21.7777Z" fill="white"/>
<path d="M134.206 9.38765H127.853L124.971 13.976L119.278 6.00047C121.724 6.02163 124.657 6.40413 126.988 7.43608V2.25684H111.178L116.838 9.77666C112.284 10.0371 109.031 13.0971 109.031 17.4593C109.031 22.212 112.544 25.6953 117.424 25.6953C120.677 25.6953 122.596 24.5884 124.971 21.3982L127.093 25.3779L133.071 25.3046L127.541 17.5569L134.206 9.38765ZM120.365 19.5655C118.447 22.3732 115.469 23.4621 113.867 22.5164C112.292 21.6293 112.149 18.3919 114.038 15.6704C115.955 12.8334 118.904 11.7738 120.508 12.6902C122.082 13.5789 122.225 16.8163 120.365 19.5655Z" fill="white"/>
</svg>
