<svg width="208" height="33" viewBox="0 0 208 33" fill="none" xmlns="http://www.w3.org/2000/svg">
<g id="Logo-black">
<g id="gandhi">
<path id="Vector" d="M0.234375 28.9375C0.234375 27.588 2.09786 26.5844 4.44608 25.6152C2.23734 25.2692 0.993488 24.5085 0.579634 23.1246V22.8817C2.82268 22.2241 4.61985 21.1518 5.55045 19.7335C2.65119 19.1103 0.716823 17.2772 0.716823 14.6125C0.716823 10.4263 4.75704 8.24734 10.3155 8.24734C15.0119 8.24734 17.2893 8.00447 18.3936 6.79468L18.5651 6.82905C18.7023 9.49379 17.806 10.5661 16.7016 10.5661C15.7345 10.5661 13.1462 10.046 10.3841 9.56253L10.3498 9.77104C14.5958 11.0175 16.7016 12.4358 16.7016 14.7889C16.7016 17.7286 13.2833 19.9786 7.93297 19.9786C7.31105 19.9786 6.68912 19.9443 6.10378 19.8412C5.62134 20.3613 5.37897 20.7073 5.37897 20.9822C5.37897 22.7809 18.4645 20.4277 18.4645 26.4492C18.4645 29.3889 15.7367 32.5738 8.14104 32.5738C2.30593 32.5738 0.234375 30.8095 0.234375 28.9421V28.9375ZM11.006 31.2563C13.6652 31.2563 14.9776 30.3558 14.9776 29.0773C14.9776 27.2786 13.4251 26.5523 5.17318 25.7206C4.34548 26.204 4.00022 26.55 4.00022 27.1732C4.00022 29.6295 7.10755 31.2563 11.0083 31.2563H11.006ZM9.07164 19.0415C10.9717 19.0415 11.7994 17.8294 11.7994 15.0616C11.7994 11.6361 10.5213 9.21426 8.24393 9.21426C6.58623 9.21426 5.48186 10.2866 5.48186 13.2629C5.48186 16.6884 6.76 19.0415 9.07164 19.0415Z" fill="#373737"/>
<path id="Vector_2" d="M19.0156 21.6572C19.0156 18.6143 22.8128 17.4055 29.1636 15.9516C29.1636 11.5602 28.6104 9.20887 26.6786 9.20887C25.2292 9.20887 24.2965 10.4887 24.676 13.0462C24.8475 14.2207 23.5375 15.0861 21.9487 15.0861C20.2227 15.0861 19.8089 14.3604 19.8089 13.6002C19.8089 11.0428 23.8141 8.24268 28.0937 8.24268C32.8579 8.24268 33.8935 10.3514 33.8935 13.7055C33.8935 15.8829 33.7907 17.9229 33.7907 19.8942C33.7907 23.2141 33.9621 24.1459 34.792 24.1459C35.1715 24.1459 35.759 23.5231 36.0356 20.8627H36.3465C36.3122 25.3571 34.8971 26.3942 32.8259 26.3942C30.7547 26.3942 29.5477 25.08 29.3053 22.834H29.2025C27.4765 24.9427 25.9585 26.3942 24.1273 26.3942C20.9519 26.3942 19.0179 24.2512 19.0179 21.6572H19.0156ZM26.61 23.4888C27.5085 23.4888 28.2674 23.0057 29.0264 22.4516C29.1293 20.7917 29.1636 18.5457 29.1636 16.8514C24.9526 17.4741 23.8119 17.9229 23.8119 20.2743C23.8119 21.6915 24.8132 23.4888 26.6077 23.4888H26.61Z" fill="#373737"/>
<path id="Vector_3" d="M36.9896 25.8709L37.4041 25.6624C38.407 24.8672 38.5444 23.8636 38.5444 17.9128C38.5444 13.1719 38.4757 12.1683 37.4041 11.4419L36.7812 10.9218V10.8186C39.4444 10.507 41.8647 9.19174 43.1425 7.56714L43.2799 7.60151C43.2112 8.60514 43.1058 10.161 43.0371 11.891H43.1745C45.1118 9.74626 47.4978 8.22248 49.7441 8.22248C53.3758 8.22248 54.3078 10.3672 54.3078 13.6898C54.3078 16.6296 54.2735 18.2565 54.2735 19.7459C54.2735 23.7605 54.4818 24.9703 55.7252 25.6624L56.1397 25.8709V26.0084H47.8069V25.8709L48.3611 25.6624C49.364 24.9016 49.5014 23.0318 49.5014 17.5302C49.5014 12.7205 48.9839 11.0936 46.3551 11.0936C45.3178 11.0936 44.5576 11.3365 43.4173 12.166C43.3142 14.0335 43.2799 15.6947 43.2799 17.6333C43.2799 23.1349 43.4173 24.8993 44.7316 25.6601L45.2858 25.8686V26.0061H36.9873V25.8686L36.9896 25.8709Z" fill="#373737"/>
<path id="Vector_4" d="M69.0536 22.713H68.9161C67.1168 24.6496 65.2121 26.3779 62.8581 26.3779C59.6056 26.3779 56.7656 23.5096 56.7656 18.1852C56.7656 11.5148 61.4026 8.40395 64.9691 8.40395C66.9426 8.40395 68.0841 9.09526 68.8107 10.1666C68.8107 5.74175 68.7075 5.32742 67.6692 4.60178L67.0114 4.11878V3.98144C69.7459 3.67012 72.5491 2.56449 73.9336 0.904907L74.0711 0.939244C73.6906 3.7388 73.5508 7.02364 73.5508 14.7653C73.5508 23.441 73.8281 23.8553 75.1438 24.3062L75.593 24.5145V24.6519C72.8586 24.8602 70.4702 25.8262 68.9826 26.8288L68.8107 26.7945C68.9482 25.5149 69.0193 24.1666 69.0536 22.7153V22.713ZM65.9043 23.473C66.8395 23.473 67.7036 23.2304 68.6732 22.4361C68.7763 20.7078 68.8107 19.2222 68.8107 15.8687C68.8107 11.0639 67.3575 9.2326 65.141 9.2326C62.9245 9.2326 61.8885 10.9609 61.8885 16.0426C61.8885 21.1244 63.4815 23.4753 65.9043 23.4753V23.473Z" fill="#373737"/>
<path id="Vector_5" d="M76.3801 25.8685L76.8632 25.6257C77.763 24.8999 77.9004 23.7939 77.9004 15.3559C77.9004 5.81198 77.866 5.39752 76.7602 4.60296L76.1718 4.11981V3.98242C78.8345 3.671 81.6347 2.56502 83.0176 0.904907L83.155 0.939254C82.8093 3.49698 82.6719 6.67982 82.6375 11.7609H82.7749C84.5722 9.75504 86.8893 8.2346 89.1354 8.2346C92.7667 8.2346 93.6985 10.3779 93.6985 13.6981C93.6985 16.6359 93.6642 18.2617 93.6642 19.7501C93.6642 23.7618 93.8725 24.9708 95.0814 25.6624L95.5302 25.8707V26.0081H87.1984V25.8707L87.7525 25.6624C88.7553 24.9022 88.8927 23.0337 88.8927 17.5358C88.8927 12.7295 88.373 11.1037 85.7468 11.1037C84.7096 11.1037 83.9495 11.3465 82.8093 12.1754C82.7062 14.0416 82.6719 15.7017 82.6719 17.6389C82.6719 23.1367 82.8093 24.8999 84.1578 25.6601L84.6753 25.8685V26.0058H76.3778V25.8685H76.3801Z" fill="#373737"/>
<path id="Vector_6" d="M96.5093 25.8707L96.9242 25.6622C97.928 24.8675 98.0655 23.6903 98.0655 17.6049C98.0655 12.8318 97.9624 11.8287 96.9242 11.2057L96.3008 10.6858V10.5484C98.6889 10.34 101.318 9.37346 103.048 7.57327L103.185 7.60762C102.908 10.1659 102.805 13.0723 102.805 16.8078C102.805 22.9642 102.943 24.8652 104.155 25.6622L104.604 25.8707V26.0081H96.507V25.8707H96.5093ZM100.903 1.87036C102.668 1.87036 103.534 2.63075 103.534 4.25688C103.534 6.02043 102.15 6.95488 100.039 6.95488C98.3084 6.95488 97.3734 6.16014 97.3734 4.53401C97.3734 2.90788 98.6201 1.87036 100.903 1.87036Z" fill="#373737"/>
</g>
<g id="neru">
<path id="Vector_7" d="M137.802 25.8696L138.217 25.6611C139.22 24.866 139.357 23.8624 139.357 17.9116C139.357 13.1707 139.288 12.1671 138.217 11.4407L137.594 10.9205V10.8174C140.257 10.5058 142.677 9.19052 143.955 7.56592L144.092 7.60029C144.024 8.60392 143.921 10.1598 143.85 11.8898H143.987C145.924 9.74504 148.31 8.22126 150.557 8.22126C154.188 8.22126 155.12 10.366 155.12 13.6885C155.12 16.6284 155.086 18.2553 155.086 19.7447C155.086 23.7593 155.294 24.9691 156.538 25.6611L156.952 25.8696V26.0071H148.619V25.8696L149.174 25.6611C150.177 24.9004 150.314 23.0306 150.314 17.5289C150.314 12.7193 149.794 11.0924 147.168 11.0924C146.13 11.0924 145.37 11.3353 144.23 12.1648C144.127 14.0323 144.092 15.6935 144.092 17.6321C144.092 23.1337 144.23 24.8981 145.544 25.6588L146.098 25.8674V26.0048H137.8V25.8674L137.802 25.8696Z" fill="#373737"/>
<path id="Vector_8" d="M157.629 17.922C157.629 11.8364 161.461 8.24182 166.815 8.24182C171.512 8.24182 174.066 11.3877 173.41 15.8477L162.394 16.3308C162.705 20.6535 164.674 22.8652 167.851 22.8652C170.025 22.8652 172.063 21.4823 172.893 18.9249L173.135 18.9592C172.616 23.9024 169.993 26.3934 165.884 26.3934C161.153 26.3934 157.631 23.3162 157.631 17.922H157.629ZM162.36 15.5707L167.677 15.328C168.576 15.2936 168.85 14.9823 168.85 14.1534C168.85 11.1793 167.606 9.17596 165.605 9.17596C163.604 9.17596 162.36 11.422 162.36 15.1563V15.5707Z" fill="#373737"/>
<path id="Vector_9" d="M174.638 25.8722L175.052 25.6636C176.053 24.8684 176.19 23.8646 176.19 17.9131C176.19 13.1716 176.122 12.1679 175.052 11.4414L174.43 10.9212V10.8181C177.089 10.5064 179.505 9.19097 180.781 7.56616L180.918 7.60054C180.85 8.6043 180.747 10.1604 180.676 12.2733H180.813C182.057 9.9541 183.92 8.22388 185.612 8.22388C187.164 8.22388 188.236 9.47056 188.236 10.7149C188.236 12.342 186.545 13.8637 185.372 13.8637C184.025 13.8637 183.543 11.4758 182.576 11.4758C182.128 11.4758 181.574 11.8906 181.058 12.617C180.955 14.0356 180.92 15.6971 180.92 17.6358C180.92 23.1382 181.058 24.7653 183.026 25.698L183.717 25.8699V26.0074H174.638V25.8699V25.8722Z" fill="#373737"/>
<path id="Vector_10" d="M201.299 22.6825H201.162C199.329 24.6202 197.183 26.3837 194.762 26.3837C191.166 26.3837 190.231 24.2056 190.231 20.8846C190.231 17.9461 190.265 16.2512 190.265 14.7625C190.265 12.8958 190.197 11.8239 189.159 11.201L188.57 10.681V10.5436C190.957 10.3352 193.55 9.36867 195.28 7.56845L195.451 7.60281C195.174 10.0581 195.037 12.8592 195.037 17.2521C195.037 22.0595 195.625 23.4773 198.115 23.4773C198.876 23.4773 199.81 23.2688 200.917 22.4054C201.02 20.5387 201.054 18.8439 201.054 16.9062C201.054 12.7905 200.882 11.7873 199.568 11.1987L198.979 10.6788V10.5413C201.609 10.3329 204.305 9.36638 206.034 7.56616L206.172 7.60052C205.894 10.0558 205.791 12.8912 205.791 16.9383C205.791 23.0261 206.103 23.8552 207.244 24.3041L207.832 24.5125V24.6499C205.099 24.8584 202.644 25.8249 201.157 26.8281L201.054 26.7937C201.192 25.5134 201.263 24.13 201.297 22.6779L201.299 22.6825Z" fill="#373737"/>
</g>
<path id="Gandhineruand" d="M134.44 10.2926H128.087L125.205 14.881L119.512 6.90538C121.959 6.92654 124.891 7.30904 127.222 8.34098V3.16174H111.413L117.073 10.6816C112.519 10.942 109.266 14.002 109.266 18.3642C109.266 23.117 112.779 26.6002 117.658 26.6002C120.911 26.6002 122.83 25.4933 125.205 22.3031L127.328 26.2828L133.305 26.2095L127.775 18.4618L134.44 10.2926ZM120.599 20.4704C118.681 23.2781 115.703 24.367 114.101 23.4213C112.527 22.5343 112.384 19.2968 114.272 16.5754C116.19 13.7383 119.138 12.6787 120.742 13.5951C122.316 14.4838 122.46 17.7212 120.599 20.4704Z" fill="#373737"/>
</g>
</svg>
