<svg width="70" height="33" viewBox="0 0 70 33"  xmlns="http://www.w3.org/2000/svg">
<path d="M0.605469 28.4983C0.605469 27.0347 2.62632 25.9464 5.17283 24.8954C2.77757 24.5202 1.42868 23.6952 0.979883 22.1944V21.9311C3.41234 21.2179 5.36128 20.0551 6.37046 18.517C3.22637 17.8412 1.12866 15.8534 1.12866 12.9636C1.12866 8.42393 5.51005 6.06093 11.5379 6.06093C16.6309 6.06093 19.1006 5.79755 20.2982 4.4856L20.4842 4.52287C20.6329 7.41264 19.6609 8.5755 18.4633 8.5755C17.4145 8.5755 14.6076 8.01146 11.6123 7.48718L11.5751 7.71329C16.1796 9.065 18.4633 10.6031 18.4633 13.1549C18.4633 16.3428 14.7564 18.7829 8.95417 18.7829C8.27973 18.7829 7.60529 18.7456 6.97052 18.6338C6.44733 19.1978 6.18449 19.573 6.18449 19.8712C6.18449 21.8217 20.3751 19.2699 20.3751 25.7998C20.3751 28.9878 17.4169 32.4416 9.17981 32.4416C2.85196 32.4416 0.605469 30.5283 0.605469 28.5032V28.4983ZM12.2867 31.0128C15.1704 31.0128 16.5937 30.0363 16.5937 28.6498C16.5937 26.6993 14.9101 25.9116 5.96133 25.0097C5.06373 25.534 4.68931 25.9092 4.68931 26.585C4.68931 29.2487 8.05905 31.0128 12.2892 31.0128H12.2867ZM10.189 17.7666C12.2495 17.7666 13.1471 16.4522 13.1471 13.4506C13.1471 9.73588 11.761 7.1095 9.29139 7.1095C7.4937 7.1095 6.29607 8.27236 6.29607 11.5001C6.29607 15.2148 7.68215 17.7666 10.189 17.7666Z"/>
<path d="M49.2182 25.4795L49.6676 25.2534C50.7553 24.3911 50.9043 23.3027 50.9043 16.8494C50.9043 11.7082 50.8298 10.6198 49.6676 9.83209L48.9922 9.26802V9.1562C51.8802 8.81825 54.5049 7.39192 55.8906 5.63013L56.0396 5.6674C55.9651 6.75579 55.8533 8.44303 55.7763 10.3191H55.9253C58.0262 7.99327 60.6137 6.34081 63.0497 6.34081C66.9881 6.34081 67.9988 8.66667 67.9988 12.2698C67.9988 15.4579 67.9615 17.2222 67.9615 18.8374C67.9615 23.1909 68.1875 24.5029 69.5359 25.2534L69.9853 25.4795V25.6286H60.9489V25.4795L61.5498 25.2534C62.6375 24.4284 62.7865 22.4007 62.7865 16.4345C62.7865 11.2187 62.2228 9.45439 59.3745 9.45439C58.2496 9.45439 57.4252 9.71779 56.1886 10.6173C56.0768 12.6425 56.0396 14.4441 56.0396 16.5463C56.0396 22.5125 56.1886 24.4259 57.6139 25.2509L58.2149 25.477V25.6261H49.2157V25.477L49.2182 25.4795Z"/>
<path d="M47.863 8.27911H40.9735L37.848 13.255L31.6746 4.60591C34.3274 4.62885 37.5075 5.04366 40.0351 6.16274V0.546143H22.8907L29.0289 8.70098C24.0901 8.9834 20.5625 12.3018 20.5625 17.0323C20.5625 22.1865 24.3724 25.9638 29.6638 25.9638C33.1915 25.9638 35.2728 24.7635 37.848 21.3039L40.1498 25.6196L46.6318 25.5402L40.6348 17.1382L47.863 8.27911ZM32.8528 19.3164C30.7733 22.3612 27.5437 23.5421 25.8063 22.5165C24.099 21.5545 23.9437 18.0437 25.9915 15.0925C28.0711 12.0159 31.2689 10.8668 33.008 11.8605C34.7154 12.8243 34.8706 16.3351 32.8528 19.3164Z"/>
</svg>
